<svg xmlns="http://www.w3.org/2000/svg" width="671" height="122" fill="none" viewBox="0 0 671 122"><path fill="#E43423" d="M220.791 112.07c0 5.458 4.441 9.908 9.908 9.908v-.008h10.89V10.438c0-5.458-4.442-9.899-9.908-9.899h-10.89V112.07Z"/><path fill="#014F8F" d="M.5 11.21c0 5.476 4.432 9.57 9.908 9.57v-.01l70.718.07V10.446c0-5.467-4.432-9.9-9.899-9.9H.5v10.665ZM51.099 121.977V40.812c0-5.449-4.459-9.907-9.908-9.907H30.545v81.165c0 5.458 4.44 9.907 9.899 9.907h10.655ZM180.889 19.467c11.42 11.68 17.704 25.482 17.704 41.795 0 16.313-6.284 30.219-17.704 41.908-11.376 11.646-26.62 18.329-42.916 18.807H74.416v-10.272a9.765 9.765 0 0 1 2.886-6.988 9.82 9.82 0 0 1 6.996-2.903l53.284-.043c22.805-.713 40.726-17.66 40.726-40.509s-17.964-39.692-40.891-40.404l-23.092-.061c-2.651-.018-5.136-1.043-6.996-2.912a9.818 9.818 0 0 1-2.886-6.996l.035-10.342 33.347.095c16.418.487 31.696 7.17 43.073 18.817l-.009.008ZM289.018 46.075v-3.75h-14.861v3.75h5.091V61.54h4.68V46.075h5.09ZM297.038 49.962v-3.887h7.088v-3.75h-11.769V61.54h11.769v-3.75h-7.088v-4.214h6.267v-3.613h-6.267ZM308.593 46.842c-.821 1.478-1.232 3.166-1.232 5.063 0 1.898.411 3.585 1.232 5.063a8.945 8.945 0 0 0 3.421 3.476c1.478.821 3.147 1.232 5.009 1.232 2.28 0 4.233-.593 5.857-1.78 1.623-1.203 2.709-2.846 3.256-4.925h-5.145c-.383.802-.93 1.414-1.642 1.833-.693.42-1.487.63-2.381.63-1.442 0-2.609-.502-3.503-1.506-.894-1.003-1.341-2.344-1.341-4.023 0-1.678.447-3.02 1.341-4.023.894-1.004 2.061-1.505 3.503-1.505.894 0 1.688.21 2.381.63.712.419 1.259 1.03 1.642 1.833h5.145c-.547-2.08-1.633-3.722-3.256-4.927-1.624-1.204-3.577-1.806-5.857-1.806-1.862 0-3.531.42-5.009 1.259-1.46.821-2.6 1.98-3.421 3.476ZM342.501 61.54h4.68V42.325h-4.68V54.23l-7.828-11.905h-4.68v19.213h4.68V49.69l7.828 11.85Z"/><path fill="#014F8F" fill-rule="evenodd" d="M355.669 60.472c1.514.839 3.175 1.259 4.981 1.259s3.458-.42 4.954-1.26a9.373 9.373 0 0 0 3.558-3.503c.876-1.514 1.314-3.21 1.314-5.09s-.438-3.567-1.314-5.063a9.126 9.126 0 0 0-3.558-3.504c-1.496-.84-3.148-1.259-4.954-1.259-1.806 0-3.467.42-4.981 1.26a9.571 9.571 0 0 0-3.585 3.503c-.876 1.496-1.314 3.183-1.314 5.063s.438 3.576 1.314 5.09a9.572 9.572 0 0 0 3.585 3.504Zm8.649-4.544c-.913 1.022-2.135 1.533-3.668 1.533-1.551 0-2.792-.502-3.722-1.505-.912-1.022-1.369-2.381-1.369-4.078 0-1.715.457-3.075 1.369-4.078.93-1.004 2.171-1.505 3.722-1.505 1.533 0 2.755.51 3.668 1.532.93 1.004 1.395 2.354 1.395 4.05 0 1.68-.465 3.03-1.395 4.051Z" clip-rule="evenodd"/><path fill="#014F8F" d="M384.88 57.926h-6.13v-15.6h-4.68v19.213h10.81v-3.613Z"/><path fill="#014F8F" fill-rule="evenodd" d="M392.209 60.472c1.514.839 3.174 1.259 4.981 1.259 1.806 0 3.457-.42 4.954-1.26a9.373 9.373 0 0 0 3.558-3.503c.875-1.514 1.313-3.21 1.313-5.09s-.438-3.567-1.313-5.063a9.126 9.126 0 0 0-3.558-3.504c-1.497-.84-3.148-1.259-4.954-1.259-1.807 0-3.467.42-4.981 1.26a9.566 9.566 0 0 0-3.586 3.503c-.876 1.496-1.314 3.183-1.314 5.063s.438 3.576 1.314 5.09a9.567 9.567 0 0 0 3.586 3.504Zm8.648-4.544c-.912 1.022-2.135 1.533-3.667 1.533-1.551 0-2.792-.502-3.723-1.505-.912-1.022-1.368-2.381-1.368-4.078 0-1.715.456-3.075 1.368-4.078.931-1.004 2.172-1.505 3.723-1.505 1.532 0 2.755.51 3.667 1.532.931 1.004 1.396 2.354 1.396 4.05 0 1.68-.465 3.03-1.396 4.051Z" clip-rule="evenodd"/><path fill="#014F8F" d="M421.858 46.951a3.399 3.399 0 0 1 1.505 1.45h5.173c-.511-1.97-1.56-3.512-3.147-4.625-1.57-1.113-3.504-1.669-5.803-1.669-1.897 0-3.585.42-5.063 1.259a8.849 8.849 0 0 0-3.476 3.476c-.821 1.478-1.231 3.166-1.231 5.063 0 1.898.41 3.585 1.231 5.063a9.092 9.092 0 0 0 3.476 3.476c1.496.821 3.193 1.232 5.091 1.232 1.605 0 3.047-.31 4.324-.93 1.277-.621 2.326-1.433 3.148-2.437.839-1.003 1.432-2.089 1.779-3.256V50.7h-10.182v3.448h5.939c-.365 1.095-.949 1.934-1.751 2.518-.785.584-1.752.876-2.901.876-1.679 0-3.002-.492-3.969-1.478-.949-1.003-1.423-2.39-1.423-4.16 0-1.66.456-2.983 1.368-3.968.913-1.004 2.126-1.506 3.64-1.506.876 0 1.633.174 2.272.52ZM437.127 61.54V42.325h-4.68v19.213h4.68Z"/><path fill="#014F8F" fill-rule="evenodd" d="m445.149 61.54 1.15-3.395h7.171l1.149 3.394h4.954l-6.952-19.213h-5.419l-6.952 19.213h4.899Zm4.735-14.041 2.381 7.034h-4.734l2.353-7.034Z" clip-rule="evenodd"/><path fill="#014F8F" d="m479.295 55.19 6.651-12.864h-5.255l-3.695 8.047-3.722-8.047h-5.31l6.651 12.863v6.35h4.68v-6.35Z"/><path fill="#014F8F" fill-rule="evenodd" d="M287.705 73.53c-1.515-.803-3.285-1.204-5.31-1.204h-7.198v19.213h7.198c2.007 0 3.768-.401 5.282-1.204 1.533-.803 2.71-1.934 3.531-3.394.839-1.46 1.259-3.13 1.259-5.008 0-1.898-.42-3.568-1.259-5.01-.821-1.459-1.989-2.59-3.503-3.393Zm-1.478 12.508c-.986.967-2.363 1.45-4.133 1.45h-2.217V76.322h2.217c1.77 0 3.147.492 4.133 1.478.985.985 1.478 2.363 1.478 4.133s-.493 3.138-1.478 4.105Z" clip-rule="evenodd"/><path fill="#014F8F" d="M300.753 79.962v-3.886h7.088v-3.75h-11.768v19.213h11.768v-3.75h-7.088v-4.214h6.267v-3.613h-6.267ZM315.045 91.046c1.113.457 2.372.685 3.777.685 1.441 0 2.691-.265 3.749-.794 1.059-.53 1.862-1.24 2.409-2.135a5.462 5.462 0 0 0 .848-2.983c0-1.15-.282-2.09-.848-2.82a5.727 5.727 0 0 0-2.025-1.669c-.767-.383-1.77-.784-3.011-1.204-1.241-.401-2.153-.775-2.737-1.122-.584-.347-.876-.83-.876-1.45 0-.566.174-.995.52-1.287.347-.31.803-.465 1.369-.465.657 0 1.195.182 1.615.547.419.347.647.83.684 1.45h5.063c-.091-1.806-.785-3.21-2.08-4.214-1.295-1.022-3.001-1.533-5.118-1.533-2.08 0-3.768.511-5.063 1.533-1.296 1.003-1.944 2.4-1.944 4.187 0 1.205.283 2.18.849 2.929.566.748 1.241 1.314 2.025 1.697.785.383 1.797.766 3.038 1.15.858.255 1.515.483 1.971.683.474.201.866.457 1.177.767.328.31.492.702.492 1.177 0 .565-.2 1.012-.602 1.34-.401.311-.949.466-1.642.466-.675 0-1.222-.182-1.642-.547-.42-.383-.666-.93-.739-1.642h-4.981c.036 1.258.383 2.335 1.04 3.23.675.893 1.569 1.568 2.682 2.024Z"/><path fill="#014F8F" fill-rule="evenodd" d="m333.339 91.54 1.149-3.395h7.171l1.15 3.394h4.954l-6.952-19.213h-5.419l-6.952 19.213h4.899Zm4.735-14.041 2.381 7.034h-4.735l2.354-7.034ZM356.671 84.286l3.996 7.253h5.282l-4.434-7.609c1.405-.42 2.463-1.13 3.175-2.134.73-1.004 1.095-2.144 1.095-3.422 0-1.13-.265-2.152-.794-3.065-.529-.93-1.332-1.66-2.408-2.19-1.059-.528-2.345-.793-3.859-.793h-7.855v19.213h4.68v-7.253h1.122Zm1.779-3.311h-2.901v-4.763h2.901c.857 0 1.496.21 1.916.63.438.42.657.994.657 1.724 0 .766-.219 1.36-.657 1.78-.42.419-1.059.629-1.916.629ZM375.515 84.286l3.996 7.253h5.282l-4.433-7.609c1.405-.42 2.463-1.13 3.174-2.134.73-1.004 1.095-2.144 1.095-3.422 0-1.13-.264-2.152-.793-3.065-.53-.93-1.332-1.66-2.409-2.19-1.058-.528-2.345-.793-3.859-.793h-7.855v19.213h4.68v-7.253h1.122Zm1.779-3.311h-2.901v-4.763h2.901c.858 0 1.497.21 1.916.63.438.42.657.994.657 1.724 0 .766-.219 1.36-.657 1.78-.419.419-1.058.629-1.916.629ZM392.663 90.472c1.514.839 3.175 1.259 4.981 1.259s3.458-.42 4.954-1.26a9.373 9.373 0 0 0 3.558-3.503c.876-1.514 1.314-3.21 1.314-5.09s-.438-3.567-1.314-5.064a9.126 9.126 0 0 0-3.558-3.503c-1.496-.84-3.148-1.259-4.954-1.259-1.806 0-3.467.42-4.981 1.26a9.571 9.571 0 0 0-3.585 3.502c-.876 1.497-1.314 3.184-1.314 5.064s.438 3.576 1.314 5.09a9.572 9.572 0 0 0 3.585 3.504Zm8.649-4.544c-.913 1.022-2.135 1.533-3.668 1.533-1.551 0-2.792-.502-3.722-1.505-.912-1.022-1.369-2.381-1.369-4.078 0-1.715.457-3.075 1.369-4.078.93-1.004 2.171-1.505 3.722-1.505 1.533 0 2.755.51 3.668 1.532.93 1.004 1.395 2.354 1.395 4.05 0 1.68-.465 3.03-1.395 4.051Z" clip-rule="evenodd"/><path fill="#014F8F" d="M421.874 87.926h-6.13v-15.6h-4.68v19.213h10.81v-3.613ZM435.908 87.926h-6.131v-15.6h-4.68v19.213h10.811v-3.613Z"/><path fill="#014F8F" fill-rule="evenodd" d="M443.236 90.472c1.514.839 3.175 1.259 4.981 1.259s3.458-.42 4.954-1.26a9.373 9.373 0 0 0 3.558-3.503c.876-1.514 1.314-3.21 1.314-5.09s-.438-3.567-1.314-5.064a9.126 9.126 0 0 0-3.558-3.503c-1.496-.84-3.148-1.259-4.954-1.259-1.806 0-3.467.42-4.981 1.26a9.571 9.571 0 0 0-3.585 3.502c-.876 1.497-1.314 3.184-1.314 5.064s.438 3.576 1.314 5.09a9.572 9.572 0 0 0 3.585 3.504Zm8.649-4.544c-.913 1.022-2.135 1.533-3.668 1.533-1.551 0-2.792-.502-3.722-1.505-.912-1.022-1.369-2.381-1.369-4.078 0-1.715.457-3.075 1.369-4.078.93-1.004 2.171-1.505 3.722-1.505 1.533 0 2.755.51 3.668 1.532.93 1.004 1.395 2.354 1.395 4.05 0 1.68-.465 3.03-1.395 4.051Z" clip-rule="evenodd"/><path fill="#014F8F" d="M468.427 91.54h4.68V72.325h-4.68v19.213ZM489.997 91.54h4.68V72.325h-4.68v11.906l-7.828-11.906h-4.68v19.213h4.68V79.69l7.828 11.85ZM511.567 76.076v-3.75H499.06v19.213h4.68v-7.773h5.857v-3.64h-5.857v-4.05h7.827Z"/><path fill="#014F8F" fill-rule="evenodd" d="M519.123 90.472c1.514.839 3.175 1.259 4.981 1.259 1.807 0 3.458-.42 4.954-1.26a9.373 9.373 0 0 0 3.558-3.503c.876-1.514 1.314-3.21 1.314-5.09s-.438-3.567-1.314-5.064a9.126 9.126 0 0 0-3.558-3.503c-1.496-.84-3.147-1.259-4.954-1.259-1.806 0-3.467.42-4.981 1.26a9.571 9.571 0 0 0-3.585 3.502c-.876 1.497-1.314 3.184-1.314 5.064s.438 3.576 1.314 5.09a9.572 9.572 0 0 0 3.585 3.504Zm8.649-4.544c-.913 1.022-2.135 1.533-3.668 1.533-1.551 0-2.792-.502-3.722-1.505-.912-1.022-1.369-2.381-1.369-4.078 0-1.715.457-3.075 1.369-4.078.93-1.004 2.171-1.505 3.722-1.505 1.533 0 2.755.51 3.668 1.532.93 1.004 1.395 2.354 1.395 4.05 0 1.68-.465 3.03-1.395 4.051ZM543.326 84.286l3.996 7.253h5.282l-4.434-7.609c1.405-.42 2.464-1.13 3.175-2.134.73-1.004 1.095-2.144 1.095-3.422 0-1.13-.265-2.152-.794-3.065-.529-.93-1.332-1.66-2.408-2.19-1.059-.528-2.345-.793-3.859-.793h-7.855v19.213h4.68v-7.253h1.122Zm1.779-3.311h-2.901v-4.763h2.901c.858 0 1.496.21 1.916.63.438.42.657.994.657 1.724 0 .766-.219 1.36-.657 1.78-.42.419-1.058.629-1.916.629Z" clip-rule="evenodd"/><path fill="#014F8F" d="M573.446 91.54h4.681V72.325h-5.502l-5.337 13.301-5.391-13.301h-5.529v19.213h4.68V79.99l4.325 11.55h3.777l4.296-11.522v11.522Z"/><path fill="#014F8F" fill-rule="evenodd" d="M587.272 88.145h7.171l1.149 3.394h4.954l-6.952-19.213h-5.419l-6.951 19.213h4.899l1.149-3.394Zm3.585-10.646 2.382 7.034h-4.735l2.353-7.034Z" clip-rule="evenodd"/><path fill="#014F8F" d="M617.474 76.076v-3.75h-14.862v3.75h5.091v15.463h4.68V76.076h5.091ZM620.813 91.54h4.68V72.325h-4.68v19.213ZM630.313 76.842c-.821 1.478-1.232 3.165-1.232 5.063 0 1.898.411 3.585 1.232 5.063a8.945 8.945 0 0 0 3.421 3.476c1.478.821 3.147 1.232 5.009 1.232 2.28 0 4.233-.593 5.857-1.78 1.623-1.203 2.709-2.846 3.257-4.925h-5.146c-.383.802-.93 1.413-1.642 1.833-.693.42-1.487.63-2.381.63-1.442 0-2.609-.502-3.503-1.506-.894-1.003-1.341-2.344-1.341-4.023 0-1.678.447-3.02 1.341-4.023.894-1.004 2.061-1.505 3.503-1.505.894 0 1.688.21 2.381.63.712.419 1.259 1.03 1.642 1.833h5.146c-.548-2.08-1.634-3.722-3.257-4.927-1.624-1.204-3.577-1.806-5.857-1.806-1.862 0-3.531.42-5.009 1.259-1.46.821-2.6 1.98-3.421 3.476Z"/><path fill="#014F8F" fill-rule="evenodd" d="M655.818 90.472c1.515.839 3.175 1.259 4.981 1.259 1.807 0 3.458-.42 4.954-1.26a9.373 9.373 0 0 0 3.558-3.503c.876-1.514 1.314-3.21 1.314-5.09s-.438-3.567-1.314-5.064a9.113 9.113 0 0 0-3.558-3.503c-1.496-.84-3.147-1.259-4.954-1.259-1.806 0-3.466.42-4.981 1.26a9.571 9.571 0 0 0-3.585 3.502c-.876 1.497-1.314 3.184-1.314 5.064s.438 3.576 1.314 5.09a9.572 9.572 0 0 0 3.585 3.504Zm8.649-4.544c-.912 1.022-2.135 1.533-3.668 1.533-1.55 0-2.791-.502-3.722-1.505-.912-1.022-1.368-2.381-1.368-4.078 0-1.715.456-3.075 1.368-4.078.931-1.004 2.172-1.505 3.722-1.505 1.533 0 2.756.51 3.668 1.532.93 1.004 1.396 2.354 1.396 4.05 0 1.68-.466 3.03-1.396 4.051Z" clip-rule="evenodd"/></svg>